PathFileType	4	(X/Y/Z)	C:\Users\Biomechanik\SynologyDrive\AlexP\Athlete_03\Athlete_3_25_03_31\Squat_35kg_01\marker_experimental.trc
DataRate	CameraRate	NumFrames	NumMarkers	Units	OrigDataRate	OrigDataStartFrame	OrigNumFrames
200.000000	200.000000	4	55	mm	200.000000	323	646
Frame#	Time	BL			BR			GLAB			RFHD			LFHD			C7			T6			SPINMOL			SPINM2			SPINM3			T12			BELTOL			BELT2			BELT3			SACROL			SACR2			SACR3			LTHOL			LTH2			LTH3			LSHAOL			LSHA2			LSHA3			LHEE			LTOE			LM5			RTHOL			RTH2			RTH3			RSHAOL			RSHA2			RSHA3			RHEE			RTOE			RM5			STRN			XIPH			LACR			LUAOL			LUA2			LUA3			LLAOL			LLA2			LLA3			LWRR			LWRU			RACR			RUAOL			RUA2			RUA3			RLAOL			RLA2			RLA3			RWRR			RWRU			
		X1	Y1	Z1	X2	Y2	Z2	X3	Y3	Z3	X4	Y4	Z4	X5	Y5	Z5	X6	Y6	Z6	X7	Y7	Z7	X8	Y8	Z8	X9	Y9	Z9	X10	Y10	Z10	X11	Y11	Z11	X12	Y12	Z12	X13	Y13	Z13	X14	Y14	Z14	X15	Y15	Z15	X16	Y16	Z16	X17	Y17	Z17	X18	Y18	Z18	X19	Y19	Z19	X20	Y20	Z20	X21	Y21	Z21	X22	Y22	Z22	X23	Y23	Z23	X24	Y24	Z24	X25	Y25	Z25	X26	Y26	Z26	X27	Y27	Z27	X28	Y28	Z28	X29	Y29	Z29	X30	Y30	Z30	X31	Y31	Z31	X32	Y32	Z32	X33	Y33	Z33	X34	Y34	Z34	X35	Y35	Z35	X36	Y36	Z36	X37	Y37	Z37	X38	Y38	Z38	X39	Y39	Z39	X40	Y40	Z40	X41	Y41	Z41	X42	Y42	Z42	X43	Y43	Z43	X44	Y44	Z44	X45	Y45	Z45	X46	Y46	Z46	X47	Y47	Z47	X48	Y48	Z48	X49	Y49	Z49	X50	Y50	Z50	X51	Y51	Z51	X52	Y52	Z52	X53	Y53	Z53	X54	Y54	Z54	X55	Y55	Z55	

324	1.615	223.5186920166016	921.3971557617189	-2218.663818359375	220.1927032470703	937.8057861328125	-198.0430450439453	512.5087890625	1101.887084960938	-1174.460205078125	459.7811584472656	1125.871704101562	-1112.635986328125	471.4141540527344	1125.414672851562	-1248.701904296875	276.2344360351562	990.4467773437501	-1186.89306640625	152.5357666015625	876.5636596679689	-1199.070434570312	131.1821746826172	857.4880981445314	-1215.79833984375	121.6101760864258	850.3446655273439	-1167.078491210938	94.44959259033203	803.3931274414064	-1204.89306640625	65.51824951171875	754.4132080078126	-1204.855712890625	31.03116416931152	745.3399658203126	-1220.70166015625	28.06370162963867	741.4929809570314	-1170.366088867188	-8.446826934814453	695.3724365234376	-1202.119750976562	-70.12802124023438	587.5726928710939	-1230.77978515625	-69.06065368652344	586.4492797851564	-1179.280639648438	-81.54811096191406	527.0549926757814	-1205.819213867188	120.1893005371094	439.3270568847657	-1503.91162109375	157.099609375	372.0519104003907	-1523.584106445312	169.0463562011719	419.5044860839845	-1535.384643554688	209.7105712890625	298.7100524902345	-1623.49365234375	148.4185180664062	258.6661071777345	-1591.764770507812	191.8757781982422	240.9705047607423	-1610.271850585938	77.71275329589844	71.73703002929696	-1489.788208007812	284.0764770507812	49.25601577758798	-1545.950073242188	216.5274353027344	22.59222221374522	-1634.9619140625	96.82197570800781	429.9314270019532	-903.0999145507812	148.0958099365234	473.5828857421876	-859.6321411132812	147.4084625244141	424.3565063476563	-866.5965576171875	184.3147125244141	316.6245727539063	-776.9142456054688	186.1026611328125	237.7918395996094	-774.49658203125	152.3413238525391	266.8483276367188	-796.553466796875	56.83565902709961	67.06168365478521	-915.519287109375	251.8963470458984	46.91027069091802	-835.369384765625	169.3664245605469	35.71604919433599	-755.4442749023438	389.1351623535156	829.9338989257814	-1189.573486328125	346.0218811035156	687.7736206054689	-1185.82958984375	306.1613464355469	949.2822875976564	-1348.8388671875	180.5071258544922	856.6568603515626	-1441.477172851562	127.6378555297852	819.0563964843751	-1430.705200195312	154.5540466308594	805.1362304687501	-1471.77392578125	116.716911315918	742.4237060546876	-1542.06689453125	185.517822265625	730.4913940429689	-1580.448120117188	161.0858154296875	774.7878417968751	-1568.407958984375	223.7090454101562	849.9165649414064	-1605.334106445312	245.5739593505859	869.3574218750001	-1531.411743164062	311.2027893066406	945.0345458984376	-1035.226806640625	187.4868621826172	854.4883422851564	-950.5261840820312	153.4845123291016	805.7923583984375	-920.858154296875	134.6343078613281	819.0145263671876	-967.9404296875	130.1307220458984	736.0546264648438	-833.4067993164062	144.8627166748047	813.7066650390625	-820.5154418945312	172.7067565917969	773.4545288085938	-807.1076049804688	216.9066619873047	852.5492553710938	-782.4613037109375	251.8094635009766	879.6151123046875	-850.0432739257812	
325	1.62	224.0061492919922	919.1682739257814	-2218.579345703125	220.3147277832031	936.15478515625	-197.9644470214843	512.7806396484375	1099.894775390625	-1174.328857421875	460.0467529296875	1123.871948242188	-1112.500854492188	471.6979370117188	1123.430786132812	-1248.581420898438	276.5065612792969	988.5100097656251	-1186.815551757812	152.7722320556641	874.7299194335939	-1198.9716796875	131.4336700439453	855.6845703125001	-1215.719360351562	121.8261566162109	848.5556030273439	-1167.018432617188	94.62564849853516	801.6364746093751	-1204.833862304688	65.64737701416016	752.7985839843751	-1204.80517578125	31.23736763000488	743.8078613281251	-1220.5849609375	28.23963165283203	739.9715576171876	-1170.246337890625	-8.301462173461914	693.8756713867189	-1202.022338867188	-70.14356994628906	585.9820556640626	-1230.65283203125	-69.06735229492188	584.8870239257814	-1179.15771484375	-81.55805206298828	525.4784545898439	-1205.661743164062	120.0955276489258	438.3991088867189	-1503.793090820312	157.1490020751953	371.3182373046876	-1523.727905273438	168.9730224609375	418.8517456054689	-1535.359008789062	209.7120056152344	298.668182373047	-1623.5166015625	148.4207916259766	258.6296997070314	-1591.779907226562	191.88134765625	240.9317474365235	-1610.27587890625	77.73027801513672	71.72523498535165	-1489.755737304688	284.0809631347656	49.25637054443369	-1545.94970703125	216.5232543945312	22.59847640991221	-1634.957397460938	96.91306304931641	428.9633178710938	-902.8615112304688	148.0859222412109	472.8548583984376	-859.5133056640625	147.5176086425781	423.6069030761719	-866.3504638671875	184.4970703125	316.4732055664063	-776.7313842773438	186.2467346191406	237.6358947753907	-774.38916015625	152.4968566894531	266.7335815429688	-796.4166870117188	56.8785285949707	67.07032012939459	-915.5659790039062	251.9136505126953	46.96180343627935	-835.3145751953125	169.3743438720703	35.7285766601563	-755.453369140625	389.3432922363281	827.9350585937501	-1189.470458984375	346.1499633789062	685.7940063476564	-1185.6953125	306.4788818359375	947.2825927734376	-1348.761352539062	180.7642059326172	854.7481079101564	-1441.3994140625	127.8710327148438	817.1876831054689	-1430.6298828125	154.7769775390625	803.2458496093751	-1471.697387695312	116.9424514770508	740.5137939453126	-1541.994262695312	185.7700958251953	728.5081787109376	-1580.333374023438	161.3405151367188	772.8372192382814	-1568.32861328125	224.0324554443359	847.9143676757814	-1605.2421875	245.8899993896484	867.3511352539064	-1531.319458007812	311.4930419921875	943.0797119140626	-1035.124389648438	187.7397918701172	852.6026611328126	-950.3603515625	153.7217712402344	803.9296264648438	-920.6837768554688	134.874267578125	817.1554565429689	-967.767333984375	130.3558959960938	734.2105102539062	-833.2404174804688	145.1110534667969	811.8551635742188	-820.366943359375	172.9411315917969	771.614501953125	-806.9596557617188	217.1329040527344	850.726806640625	-782.347900390625	252.0326843261719	877.7691040039062	-849.9388427734375	
326	1.625	224.4946441650391	916.9523315429689	-2218.49658203125	220.4380035400391	934.51904296875	-197.8875274658203	513.0532836914062	1097.914916992188	-1174.205688476562	460.3133544921875	1121.884765625	-1112.373901367188	471.9816284179688	1121.457885742188	-1248.468139648438	276.7797546386719	986.5853271484376	-1186.74169921875	153.0096740722656	872.9088134765626	-1198.874755859375	131.6880798339844	853.8924560546876	-1215.643188476562	122.0422897338867	846.7784423828126	-1166.960205078125	94.80380249023438	799.8920288085939	-1204.77587890625	65.77932739257812	751.1986083984376	-1204.75537109375	31.44502830505371	742.2876586914064	-1220.469604492188	28.41550064086914	738.4643554687501	-1170.128295898438	-8.156955718994141	692.3917846679689	-1201.927368164062	-70.15952301025391	584.4040527343751	-1230.5263671875	-69.07570648193359	583.3377075195314	-1179.034423828125	-81.57044219970703	523.9149780273439	-1205.503051757812	120.0063095092773	437.486297607422	-1503.663330078125	157.1996459960938	370.5978393554689	-1523.86181640625	168.9007568359375	418.2134399414064	-1535.31982421875	209.7218017578125	298.6284179687501	-1623.526245117188	148.4285125732422	258.5954589843751	-1591.786499023438	191.8944396972656	240.8941955566407	-1610.26904296875	77.74630737304688	71.7122344970704	-1489.723754882812	284.0854187011719	49.25613021850595	-1545.947509765625	216.5195159912109	22.60687065124522	-1634.951538085938	96.9986572265625	428.0070190429688	-902.6192626953125	148.0725708007812	472.1360778808594	-859.3928833007812	147.6210479736328	422.8671569824219	-866.1016845703125	184.6744995117188	316.3220214843751	-776.5465087890625	186.3887023925781	237.4798736572266	-774.2824096679688	152.6487274169922	266.6177978515626	-796.2783203125	56.9224739074707	67.07965850830084	-915.61279296875	251.9322204589844	47.01618957519536	-835.25927734375	169.3828125	35.74167633056646	-755.4632568359375	389.5516662597656	825.9474487304689	-1189.371459960938	346.2778625488281	683.8286743164064	-1185.565307617188	306.7980041503906	945.2931518554689	-1348.687133789062	181.0234375	852.8480834960939	-1441.3251953125	128.1071929931641	815.3314208984376	-1430.558471679688	155.0017395019531	801.3643188476564	-1471.624145507812	117.1684494018555	738.6121215820314	-1541.925415039062	186.0268249511719	726.5349121093751	-1580.220581054688	161.5967102050781	770.8962402343751	-1568.251953125	224.3545837402344	845.9240112304689	-1605.150756835938	246.2052612304688	865.3563842773439	-1531.228149414062	311.7856750488281	941.1360473632814	-1035.025634765625	187.9928131103516	850.7329711914064	-950.199462890625	153.9533081054688	802.0841064453125	-920.5133056640625	135.1138000488281	815.3127441406251	-967.6005859375	130.5733795166016	732.38427734375	-833.0796508789062	145.3553466796875	810.0182495117188	-820.2249755859375	173.1689910888672	769.7901000976562	-806.8161010742188	217.3566436767578	848.9176635742188	-782.2369384765625	252.2557830810547	875.9354858398438	-849.8363037109375	
327	1.63	224.9837493896484	914.7507324218751	-2218.415771484375	220.5626983642578	932.8983154296875	-197.812271118164	513.3267822265625	1095.947509765625	-1174.092041015625	460.5812683105469	1119.910278320312	-1112.255981445312	472.2649536132812	1119.495727539062	-1248.363159179688	277.0542907714844	984.6727905273439	-1186.671264648438	153.2477722167969	871.1002197265626	-1198.779052734375	131.9448547363281	852.1114501953126	-1215.569213867188	122.2585296630859	845.0128173828126	-1166.902587890625	94.98386383056641	798.1592407226564	-1204.718627929688	65.91464233398438	749.6127319335939	-1204.705688476562	31.65432739257812	740.7789306640626	-1220.356079101562	28.59145164489746	736.9709472656251	-1170.01220703125	-8.012619018554688	690.9200439453126	-1201.8349609375	-70.17661285400391	582.8366699218751	-1230.4013671875	-69.08628082275391	581.7994384765626	-1178.911865234375	-81.58580780029297	522.3625488281251	-1205.344360351562	119.9239959716797	436.5876770019532	-1503.523803710938	157.2554016113281	369.8887634277345	-1523.984619140625	168.8328247070312	417.5872802734376	-1535.267211914062	209.7419891357422	298.5906066894532	-1623.521484375	148.4434967041016	258.5634765625001	-1591.783325195312	191.9165191650391	240.8578186035157	-1610.25048828125	77.76121520996094	71.69805908203134	-1489.691528320312	284.090087890625	49.25505065917978	-1545.94287109375	216.5163726806641	22.61768913269053	-1634.943969726562	97.07874298095703	427.0618896484376	-902.374755859375	148.0554504394531	471.4261779785157	-859.2720947265625	147.7188110351562	422.1369018554688	-865.8515625	184.8469543457031	316.1716613769532	-776.3612060546875	186.5280609130859	237.3246154785157	-774.1771240234375	152.7967834472656	266.5018005371094	-796.1394653320312	56.96724700927734	67.08944702148443	-915.6599731445312	251.9517974853516	47.07102966308599	-835.2064208984375	169.391845703125	35.7554206848145	-755.4740600585938	389.7601013183594	823.9711303710939	-1189.275512695312	346.4056091308594	681.8782348632814	-1185.438720703125	307.1189270019531	943.3136596679689	-1348.615966796875	181.2848205566406	850.9567260742189	-1441.25439453125	128.3463897705078	813.4879760742189	-1430.490966796875	155.2286682128906	799.4913940429689	-1471.553833007812	117.3948135375977	736.7192993164064	-1541.859985351562	186.2866363525391	724.5725097656251	-1580.109985351562	161.8541107177734	768.9652709960939	-1568.177368164062	224.6750030517578	843.9456787109376	-1605.059936523438	246.5194549560547	863.3735961914064	-1531.137817382812	312.080078125	939.2041625976564	-1034.930541992188	188.2450714111328	848.8800659179689	-950.0425415039062	154.1799621582031	800.2559204101562	-920.3468627929688	135.3526916503906	813.4871215820314	-967.4398193359375	130.7832641601562	730.576416015625	-832.9241943359375	145.5937042236328	808.1974487304688	-820.0894775390625	173.390625	767.9818725585938	-806.6767578125	217.578125	847.1222534179688	-782.128173828125	252.4788055419922	874.1146850585938	-849.7357788085938	
